<svg width="64" height="64" viewBox="0 0 120 120" fill="none" xmlns="http://www.w3.org/2000/svg">
<g clip-path="url(#clip0_202_2)">
<path d="M27.1025 0V18.8019H36.9766V0H27.1025ZM84.0233 0V18.8019H93.8826V0H84.0233ZM6.9233 9.0368V35.3594H114.077V9.0368H100.943V25.852H76.9634V9.0368H44.0218V25.852H20.0574V9.0368H6.9233ZM6.9233 42.2708V120H114.077V42.2707L6.9233 42.2708ZM49.0157 60.2304C54.4701 60.2841 59.6319 62.9047 61.6841 67.7809C62.6492 70.6937 63.1631 73.7988 61.9615 76.5105C60.4573 79.6388 57.4078 81.2674 54.416 82.317C60.0309 83.782 63.7262 87.313 63.7599 93.0482C63.6694 96.9821 61.8283 100.467 59.0483 102.744C56.0924 105.081 52.5183 106.386 49.0157 106.41C39.1382 106.41 34.1972 101.957 34.1972 93.0482H42.9169C43.1022 96.7988 44.8756 99.6514 48.5253 99.7019C53.1649 99.3858 55.002 96.3373 55.0402 92.4338C55.0381 90.0761 54.1774 87.6599 52.1271 86.7512C49.4821 85.6521 46.5294 85.7827 43.9523 85.7801V78.9976C48.165 79.0854 53.9519 78.3422 53.9949 73.3199C53.8311 69.6258 52.3191 66.9901 48.7333 66.9436C44.9137 67.1739 42.8176 69.3453 42.7782 72.7748H34.1972C34.3835 64.1275 41.487 60.269 49.0157 60.2304ZM79.1136 61.0677H86.7979V105.588H78.4844V69.7874C75.2994 72.5107 71.7741 74.4499 67.8969 75.6038V67.989C72.4203 66.2349 76.1595 63.9296 79.1136 61.0677Z" fill="#364b63"/>
</g>
<defs>
<clipPath id="clip0_202_2">
<rect width="120" height="120" fill="black" transform="translate(0.5)"/>
</clipPath>
</defs>
</svg>
