<svg width="80" height="80" viewBox="0 0 120 120" fill="none" xmlns="http://www.w3.org/2000/svg">
<path d="M47.274 45C50.298 41.34 54.876 39 60 39C65.124 39 69.702 41.34 72.726 45C74.7169 47.4139 75.9805 50.3441 76.3692 53.4488C76.7579 56.5536 76.2558 59.7049 74.9214 62.5351C73.5871 65.3653 71.4755 67.7578 68.833 69.4334C66.1905 71.109 63.126 71.9987 59.997 71.9987C56.868 71.9987 53.8035 71.109 51.161 69.4334C48.5185 67.7578 46.4069 65.3653 45.0725 62.5351C43.7382 59.7049 43.2361 56.5536 43.6248 53.4488C44.0136 50.3441 45.2771 47.4139 47.268 45H47.274ZM82.5 55.5C82.5 51.708 81.564 48.132 79.908 45H105C107.387 45 109.676 45.9482 111.364 47.636C113.052 49.3239 114 51.6131 114 54V57C114 66.522 106.764 76.272 94.11 79.704C92.8096 77.3681 90.9085 75.4221 88.6036 74.0676C86.2986 72.7131 83.6735 71.9993 81 72H75.3C77.5742 69.8958 79.388 67.3434 80.6272 64.5037C81.8663 61.6639 82.504 58.5983 82.5 55.5ZM81 78C82.1828 77.9968 83.3545 78.2275 84.4479 78.6786C85.5413 79.1298 86.5347 79.7926 87.371 80.629C88.2074 81.4653 88.8702 82.4587 89.3214 83.5521C89.7725 84.6455 90.0032 85.8172 90 87V90C90 101.826 78.84 114 60 114C41.16 114 30 101.826 30 90V87C29.9968 85.8172 30.2275 84.6455 30.6786 83.5521C31.1298 82.4587 31.7926 81.4653 32.629 80.629C33.4653 79.7926 34.4587 79.1298 35.5521 78.6786C36.6455 78.2275 37.8172 77.9968 39 78H81ZM6 57C6 66.522 13.236 76.272 25.89 79.704C27.1904 77.3681 29.0915 75.4221 31.3964 74.0676C33.7014 72.7131 36.3265 71.9993 39 72H44.7C42.4258 69.8958 40.612 67.3434 39.3728 64.5037C38.1337 61.6639 37.496 58.5983 37.5 55.5C37.5 51.708 38.436 48.132 40.098 45H15C12.6131 45 10.3239 45.9482 8.63604 47.636C6.94821 49.3239 6 51.6131 6 54V57ZM52.5 22.5C52.5 18.1239 50.7616 13.9271 47.6673 10.8327C44.5729 7.73839 40.3761 6 36 6C31.6239 6 27.4271 7.73839 24.3327 10.8327C21.2384 13.9271 19.5 18.1239 19.5 22.5C19.5 26.8761 21.2384 31.0729 24.3327 34.1673C27.4271 37.2616 31.6239 39 36 39C40.3761 39 44.5729 37.2616 47.6673 34.1673C50.7616 31.0729 52.5 26.8761 52.5 22.5ZM100.5 22.5C100.5 18.1239 98.7616 13.9271 95.6673 10.8327C92.5729 7.73839 88.3761 6 84 6C79.6239 6 75.4271 7.73839 72.3327 10.8327C69.2384 13.9271 67.5 18.1239 67.5 22.5C67.5 26.8761 69.2384 31.0729 72.3327 34.1673C75.4271 37.2616 79.6239 39 84 39C88.3761 39 92.5729 37.2616 95.6673 34.1673C98.7616 31.0729 100.5 26.8761 100.5 22.5Z" fill="#f71cec80"/>
</svg>
