<svg width="80" height="80" viewBox="0 0 120 120" fill="none" xmlns="http://www.w3.org/2000/svg">
<path d="M91.1719 9.57178C95.5078 9.57178 99.375 13.9757 99.375 19.8913C99.375 25.828 95.5078 30.2108 91.1719 30.2108C86.8359 30.2108 82.9687 25.828 82.9687 19.8913C82.9687 13.9757 86.8359 9.57178 91.1719 9.57178ZM60.0234 9.57178C64.3359 9.57178 68.2266 13.9757 68.2266 19.8913C68.2266 25.828 64.3359 30.2108 60.0234 30.2108C55.6875 30.2108 51.7969 25.828 51.7969 19.8913C51.7969 13.9757 55.6875 9.57178 60.0234 9.57178ZM28.8516 9.57178C33.1875 9.57178 37.0547 13.9757 37.0547 19.8913C37.0547 25.828 33.1875 30.2108 28.8516 30.2108C24.5156 30.2108 20.6273 25.828 20.6273 19.8913C20.6273 13.9757 24.5156 9.57178 28.8516 9.57178ZM60.0234 35.1327C75.0234 35.6015 87.6797 35.6015 102.867 36.1171C110.109 40.289 113.461 61.664 113.25 69.0937L109.125 73.2421C107.32 63.2108 105.047 49.828 101.273 46.8515V67.3827L102.234 110.437H97.0312L93.1172 67.1483H88.8984L84.9844 110.437H79.7578L80.7422 67.3827L78.8672 46.6405H72L70.3125 67.3124L71.2969 110.367H66.0703L62.1328 67.078H57.9141L53.9766 110.367H48.7734L49.7578 67.3124L48.0469 46.6405H41.1797L39.3047 67.3827L40.2891 110.437H35.0625L31.1484 67.1483H26.9297L22.9711 110.437H17.768L18.7523 67.3827V46.8515C14.9555 49.828 12.682 63.2108 10.8773 73.2421L6.75234 69.0937C6.5414 61.664 9.9164 40.289 17.1352 36.1171C32.3672 35.6015 45.0234 35.6015 60.0234 35.1327Z" fill="#364b63"/>
</svg>
