<svg width="256" height="256" viewBox="0 0 256 256" fill="none" xmlns="http://www.w3.org/2000/svg">
<path d="M208 24H168C165.879 24 163.844 24.8429 162.344 26.3431C160.843 27.8434 160 29.8783 160 32C160 34.1217 160.843 36.1566 162.344 37.6569C163.844 39.1571 165.879 40 168 40H188.69L163.54 65.15C156.156 58.2679 147.248 53.2302 137.544 50.4484C127.841 47.6666 117.617 47.2196 107.707 49.1439C97.7978 51.0681 88.4842 55.3091 80.5269 61.5204C72.5697 67.7317 66.1945 75.7371 61.9221 84.8829C57.6497 94.0286 55.6013 104.055 55.9442 114.144C56.287 124.233 59.0114 134.097 63.8948 142.932C68.7782 151.766 75.6821 159.32 84.0427 164.977C92.4033 170.634 101.983 174.233 112 175.48V192H88.0005C85.8787 192 83.8439 192.843 82.3436 194.343C80.8433 195.843 80.0005 197.878 80.0005 200C80.0005 202.122 80.8433 204.157 82.3436 205.657C83.8439 207.157 85.8787 208 88.0005 208H112V232C112 234.122 112.843 236.157 114.344 237.657C115.844 239.157 117.879 240 120 240C122.122 240 124.157 239.157 125.657 237.657C127.158 236.157 128 234.122 128 232V208H152C154.122 208 156.157 207.157 157.657 205.657C159.158 204.157 160 202.122 160 200C160 197.878 159.158 195.843 157.657 194.343C156.157 192.843 154.122 192 152 192H128V175.48C138.724 174.14 148.932 170.104 157.672 163.748C166.412 157.392 173.398 148.924 177.976 139.136C182.555 129.347 184.577 118.557 183.854 107.775C183.131 96.9924 179.686 86.5694 173.84 77.48L200 51.31V72C200 74.1217 200.843 76.1566 202.344 77.6569C203.844 79.1571 205.879 80 208 80C210.122 80 212.157 79.1571 213.657 77.6569C215.158 76.1566 216 74.1217 216 72V32C216 29.8783 215.158 27.8434 213.657 26.3431C212.157 24.8429 210.122 24 208 24ZM120 160C110.507 160 101.227 157.185 93.3331 151.911C85.4395 146.636 79.2873 139.14 75.6543 130.369C72.0213 121.598 71.0707 111.947 72.9228 102.636C74.7749 93.3246 79.3464 84.7718 86.0594 78.0589C92.7723 71.346 101.325 66.7744 110.636 64.9223C119.947 63.0702 129.598 64.0208 138.369 67.6538C147.14 71.2868 154.637 77.4391 159.911 85.3326C165.185 93.2262 168 102.507 168 112C167.987 124.726 162.926 136.928 153.927 145.927C144.928 154.925 132.727 159.987 120 160Z" fill="#F8F8F8"/>
</svg>
