<svg width="64" height="64" viewBox="0 0 64 64" fill="none" xmlns="http://www.w3.org/2000/svg">
<path d="M31.9995 8C28.6128 8 25.5995 10.1333 24.4795 13.3333H7.99949V18.6667H13.1995L5.33283 37.3333C4.07949 42.6667 7.99949 45.3333 14.6662 45.3333C21.3328 45.3333 25.4928 42.6667 23.9995 37.3333L16.1328 18.6667H24.4528C25.3328 20.9333 27.0662 22.6667 29.3328 23.5467V53.3333H5.33283V58.6667H58.6662V53.3333H34.6662V23.52C36.9328 22.6667 38.6662 20.9333 39.5195 18.6667H47.8662L39.9995 37.3333C38.7462 42.6667 42.6662 45.3333 49.3328 45.3333C55.9995 45.3333 60.1595 42.6667 58.6662 37.3333L50.7995 18.6667H55.9995V13.3333H39.5462C38.3995 10.1333 35.3862 8 31.9995 8ZM31.9995 13.3333C32.7067 13.3333 33.385 13.6143 33.8851 14.1144C34.3852 14.6145 34.6662 15.2928 34.6662 16C34.6662 16.7072 34.3852 17.3855 33.8851 17.8856C33.385 18.3857 32.7067 18.6667 31.9995 18.6667C31.2923 18.6667 30.614 18.3857 30.1139 17.8856C29.6138 17.3855 29.3328 16.7072 29.3328 16C29.3328 15.2928 29.6138 14.6145 30.1139 14.1144C30.614 13.6143 31.2923 13.3333 31.9995 13.3333ZM14.6662 27.3333L18.6662 37.3333H10.6662L14.6662 27.3333ZM49.3328 27.3333L53.3328 37.3333H45.3328L49.3328 27.3333Z" fill="#ffffff"/>
</svg>
