<svg width="80" height="80" viewBox="0 0 120 120" fill="none" xmlns="http://www.w3.org/2000/svg">
<path d="M60 20C65.55 20 70 24.45 70 30C70 35.55 65.55 40 60 40C54.45 40 50 35.55 50 30C50 24.45 54.5 20 60 20ZM105 80V70C93.8 70 84.2 65.2 77 56.6L70.3 48.6C69.3698 47.4724 68.2013 46.5647 66.8786 45.9423C65.5559 45.3198 64.1118 44.998 62.65 45H57.5C54.45 45 51.65 46.3 49.75 48.6L43.05 56.6C35.8 65.2 26.2 70 15 70V80C28.85 80 40.95 74.15 50 63.75V75L30.6 82.75C27.25 84.1 25 87.5 25 91.05C25 96 29 100 33.95 100H45V97.5C45 94.1848 46.317 91.0054 48.6612 88.6612C51.0054 86.317 54.1848 85 57.5 85H72.5C73.9 85 75 86.1 75 87.5C75 88.9 73.9 90 72.5 90H57.5C53.35 90 50 93.35 50 97.5V100H86.05C91 100 95 96 95 91.05C95 87.5 92.75 84.1 89.4 82.75L70 75V63.75C79.05 74.15 91.15 80 105 80Z" fill="#f71cec80"/>
</svg>
