<svg width="80" height="80" viewBox="0 0 120 120" fill="none" xmlns="http://www.w3.org/2000/svg">
<path d="M60 110C53.4339 110 46.9321 108.707 40.8658 106.194C34.7995 103.681 29.2876 99.9983 24.6447 95.3553C15.2678 85.9785 10 73.2608 10 60C10 46.7392 15.2678 34.0215 24.6447 24.6447C34.0215 15.2678 46.7392 10 60 10C87.5 10 110 30 110 55C110 62.9565 106.839 70.5871 101.213 76.2132C95.5871 81.8393 87.9565 85 80 85H71C69.5 85 68.5 86 68.5 87.5C68.5 88 69 88.5 69 89C71 91.5 72 94.5 72 97.5C72.5 104.5 67 110 60 110ZM60 20C49.3913 20 39.2172 24.2143 31.7157 31.7157C24.2143 39.2172 20 49.3913 20 60C20 70.6087 24.2143 80.7828 31.7157 88.2843C39.2172 95.7857 49.3913 100 60 100C61.5 100 62.5 99 62.5 97.5C62.5 96.5 62 96 62 95.5C60 93 59 90.5 59 87.5C59 80.5 64.5 75 71.5 75H80C85.3043 75 90.3914 72.8929 94.1421 69.1421C97.8929 65.3914 100 60.3043 100 55C100 35.5 82 20 60 20ZM32.5 50C36.5 50 40 53.5 40 57.5C40 61.5 36.5 65 32.5 65C28.5 65 25 61.5 25 57.5C25 53.5 28.5 50 32.5 50ZM47.5 30C51.5 30 55 33.5 55 37.5C55 41.5 51.5 45 47.5 45C43.5 45 40 41.5 40 37.5C40 33.5 43.5 30 47.5 30ZM72.5 30C76.5 30 80 33.5 80 37.5C80 41.5 76.5 45 72.5 45C68.5 45 65 41.5 65 37.5C65 33.5 68.5 30 72.5 30ZM87.5 50C91.5 50 95 53.5 95 57.5C95 61.5 91.5 65 87.5 65C83.5 65 80 61.5 80 57.5C80 53.5 83.5 50 87.5 50Z" fill="#364b63"/>
</svg>
