<svg width="80" height="80" viewBox="0 0 120 120" fill="none" xmlns="http://www.w3.org/2000/svg">
<path d="M65 15C46.15 15 30.95 29.75 30 48.3L20.4 60.95C19.2 62.5 20.4 65 22.5 65H30V80C30 85.55 34.45 90 40 90H45V105H80V81.55C91.85 75.95 100 64 100 50C100 30.7 84.4 15 65 15ZM85 44.15C85 51.85 78.2 58 67.9 67.35L65 70L62.1 67.35C51.8 58 45 51.85 45 44.15C45 38.15 49.8 33.2 55.8 33.15H56C59.45 33.15 62.75 34.7 65 37.3C67.25 34.7 70.55 33.15 74 33.15C80 33.1 85 37.95 85 43.95V44.15Z" fill="#364b63"/>
</svg>
