<svg width="80" height="80" viewBox="0 0 120 120" fill="none" xmlns="http://www.w3.org/2000/svg">
<path d="M25.056 31.1521C24.4658 30.9838 23.8445 30.9547 23.2411 31.0671C22.6377 31.1796 22.0687 31.4304 21.5787 31.8C21.0886 32.1696 20.691 32.6478 20.4171 33.1971C20.1432 33.7463 20.0004 34.3516 20 34.9654V84.8534C20 87.4881 22.5227 89.3867 25.056 88.6667C35.5616 85.6659 46.41 84.0311 57.3333 83.8027V94.5761H30.6667V99.9094H89.3333V94.5761H62.6667V83.8027C73.5413 84.0267 84.3893 85.6481 94.944 88.6667C95.5342 88.835 96.1555 88.8641 96.7589 88.7517C97.3623 88.6392 97.9313 88.3884 98.4213 88.0188C98.9114 87.6492 99.309 87.171 99.5829 86.6217C99.8568 86.0725 99.9996 85.4672 100 84.8534V34.9654C99.9996 34.3516 99.8568 33.7463 99.5829 33.1971C99.309 32.6478 98.9114 32.1696 98.4213 31.8C97.9313 31.4304 97.3623 31.1796 96.7589 31.0671C96.1555 30.9547 95.5342 30.9838 94.944 31.1521C72.1049 37.6774 47.8951 37.6774 25.056 31.1521Z" fill="#364b63"/>
<path d="M100 48.4167C90.3813 48.4167 82.5833 40.6188 82.5833 31C82.5833 21.3813 90.3813 13.5834 100 13.5834C109.619 13.5834 117.417 21.3813 117.417 31C117.417 40.6188 109.619 48.4167 100 48.4167ZM101.583 20.7084H98.4167V31.6555L104.75 37.9889L106.989 35.75L101.583 30.3445V20.7084Z" fill="white"/>
</svg>
