<svg width="80" height="80" viewBox="0 0 120 120" fill="none" xmlns="http://www.w3.org/2000/svg">
<path fill-rule="evenodd" clip-rule="evenodd" d="M81.875 23.25C81.013 23.7473 79.9889 23.8818 79.0277 23.6239C78.0666 23.3661 77.2473 22.737 76.75 21.875C76.2527 21.0131 76.1182 19.9889 76.3761 19.0277C76.6339 18.0666 77.263 17.2473 78.125 16.75L95.445 6.75001C96.0875 6.37803 96.826 6.20514 97.5668 6.25324C98.3077 6.30134 99.0176 6.56827 99.6066 7.02021C100.196 7.47215 100.637 8.08875 100.876 8.7919C101.114 9.49505 101.138 10.2531 100.945 10.97L95.965 29.545L105.445 24.075C105.872 23.8249 106.344 23.6616 106.834 23.5946C107.324 23.5276 107.822 23.5582 108.3 23.6846C108.778 23.811 109.227 24.0308 109.619 24.3312C110.012 24.6316 110.342 25.0067 110.589 25.435C110.836 25.8633 110.997 26.3363 111.06 26.8267C111.124 27.3171 111.09 27.8153 110.961 28.2926C110.831 28.7699 110.608 29.2168 110.305 29.6077C110.002 29.9985 109.625 30.3256 109.195 30.57L91.875 40.57C91.2325 40.942 90.494 41.1149 89.7532 41.0668C89.0123 41.0187 88.3024 40.7517 87.7134 40.2998C87.1244 39.8479 86.6827 39.2313 86.4445 38.5281C86.2062 37.825 86.182 37.0669 86.375 36.35L91.355 17.775L81.875 23.25ZM63.365 30.75C62.9382 30.5038 62.5641 30.1759 62.264 29.7851C61.9639 29.3943 61.7438 28.9482 61.6161 28.4723C61.4884 27.9964 61.4557 27.5 61.5199 27.0115C61.584 26.5229 61.7438 26.0518 61.99 25.625C62.2362 25.1982 62.5641 24.8241 62.9549 24.524C63.3457 24.2239 63.7918 24.0038 64.2677 23.8761C64.7436 23.7484 65.24 23.7157 65.7286 23.7799C66.2171 23.844 66.6882 24.0038 67.115 24.25L75.775 29.25C76.4174 29.6209 76.9353 30.1739 77.2634 30.8392C77.5914 31.5044 77.7148 32.252 77.6179 32.9874C77.521 33.7228 77.2083 34.4129 76.7191 34.9705C76.23 35.5281 75.5865 35.9281 74.87 36.12L69.955 37.44L70.775 37.915C71.2049 38.1594 71.5822 38.4865 71.8853 38.8774C72.1883 39.2682 72.411 39.7151 72.5405 40.1924C72.6701 40.6697 72.704 41.1679 72.6403 41.6583C72.5765 42.1487 72.4164 42.6217 72.1691 43.05C71.9218 43.4783 71.5923 43.8534 71.1994 44.1538C70.8066 44.4542 70.3582 44.674 69.88 44.8004C69.4019 44.9268 68.9035 44.9574 68.4135 44.8904C67.9235 44.8234 67.4516 44.6601 67.025 44.41L58.365 39.41C57.7226 39.0395 57.2044 38.4869 56.876 37.822C56.5477 37.157 56.4238 36.4097 56.5201 35.6744C56.6165 34.9391 56.9287 34.2488 57.4172 33.6909C57.9058 33.133 58.5488 32.7325 59.265 32.54L64.185 31.22L63.365 30.75Z" fill="#f71cec"/>
<path fill-rule="evenodd" clip-rule="evenodd" d="M66.425 16.31C64.9159 16.152 63.3905 16.3004 61.9402 16.7465C60.49 17.1925 59.1447 17.9269 57.9853 18.9056C56.8259 19.8844 55.8761 21.0873 55.193 22.4421C54.5098 23.7969 54.1075 25.2758 54.01 26.79C51.6583 28.3516 49.9804 30.7409 49.3097 33.483C48.639 36.2251 49.0246 39.1192 50.39 41.59C51.36 43.35 52.8 44.855 54.615 45.905L63.275 50.905C64.8799 51.8319 66.6889 52.348 68.5413 52.4073C70.3937 52.4667 72.232 52.0674 73.893 51.2451C75.5539 50.4228 76.9859 49.2029 78.0618 47.6938C79.1377 46.1848 79.8241 44.4333 80.06 42.595C80.7678 43.9308 81.7376 45.1101 82.9116 46.0626C84.0855 47.015 85.4395 47.721 86.8924 48.1382C88.3454 48.5555 89.8676 48.6755 91.368 48.4911C92.8685 48.3067 94.3163 47.8217 95.625 47.065L100.505 44.25C103.476 50.7636 105.009 57.8408 105 65C105 92.615 82.615 115 55 115C27.385 115 5 92.615 5 65C5 37.39 27.385 15 55 15C58.93 15 62.75 15.45 66.425 16.31ZM27.23 56.26C27.8001 56.2183 28.3721 56.3074 28.9025 56.5206C29.4328 56.7337 29.9074 57.0653 30.29 57.49C32.61 60.08 35.11 61.25 37.5 61.25C38.985 61.25 40.52 60.8 42.02 59.83C43.018 59.1747 43.9229 58.3876 44.71 57.49C45.3757 56.75 46.3081 56.3048 47.302 56.2523C48.296 56.1998 49.27 56.5443 50.01 57.21C50.75 57.8757 51.1952 58.8081 51.2477 59.802C51.3002 60.796 50.9557 61.77 50.29 62.51C46.94 66.225 42.55 68.75 37.5 68.75C32.45 68.75 28.055 66.225 24.71 62.51C24.24 61.9881 23.926 61.3448 23.8038 60.6532C23.6816 59.9616 23.756 59.2496 24.0186 58.5982C24.2813 57.9469 24.7215 57.3823 25.2893 56.969C25.857 56.5556 26.5295 56.3099 27.23 56.26ZM65.29 57.49C64.9604 57.1236 64.5618 56.8257 64.1171 56.6134C63.6724 56.401 63.1901 56.2783 62.698 56.2523C62.2058 56.2263 61.7134 56.2975 61.2488 56.4618C60.7841 56.6262 60.3564 56.8804 59.99 57.21C59.6236 57.5396 59.3257 57.9382 59.1134 58.3829C58.901 58.8276 58.7783 59.3099 58.7523 59.802C58.6998 60.796 59.0443 61.77 59.71 62.51C63.06 66.225 67.45 68.75 72.5 68.75C77.55 68.75 81.945 66.225 85.29 62.51C85.9557 61.77 86.3002 60.796 86.2477 59.802C86.1952 58.8081 85.75 57.8757 85.01 57.21C84.2701 56.5443 83.296 56.1998 82.302 56.2523C81.3081 56.3048 80.3757 56.75 79.71 57.49C77.385 60.08 74.885 61.25 72.5 61.25C70.115 61.25 67.615 60.08 65.29 57.49ZM60 85C60 86.3261 59.4732 87.5979 58.5355 88.5355C57.5979 89.4732 56.3261 90 55 90C53.6739 90 52.4021 89.4732 51.4645 88.5355C50.5268 87.5979 50 86.3261 50 85C50 83.6739 50.5268 82.4021 51.4645 81.4645C52.4021 80.5268 53.6739 80 55 80C56.3261 80 57.5979 80.5268 58.5355 81.4645C59.4732 82.4021 60 83.6739 60 85Z" fill="#f71cec80"/>
</svg>
