<svg width="80" height="80" viewBox="0 0 120 120" fill="none" xmlns="http://www.w3.org/2000/svg">
<path d="M60 15C54.0905 15 48.2389 16.164 42.7792 18.4254C37.3196 20.6869 32.3588 24.0016 28.1802 28.1802C24.0016 32.3588 20.6869 37.3196 18.4254 42.7792C16.164 48.2389 15 54.0905 15 60C15 65.9095 16.164 71.7611 18.4254 77.2208C20.6869 82.6804 24.0016 87.6412 28.1802 91.8198C32.3588 95.9984 37.3196 99.3131 42.7792 101.575C48.2389 103.836 54.0905 105 60 105C71.9347 105 83.3807 100.259 91.8198 91.8198C100.259 83.3807 105 71.9347 105 60C105 48.0653 100.259 36.6193 91.8198 28.1802C83.3807 19.7411 71.9347 15 60 15ZM5 60C5 29.625 29.625 5 60 5C90.375 5 115 29.625 115 60C115 90.375 90.375 115 60 115C29.625 115 5 90.375 5 60ZM40 42.5V47.5C40 48.163 40.2634 48.7989 40.7322 49.2678C41.2011 49.7366 41.837 50 42.5 50C43.163 50 43.7989 49.7366 44.2678 49.2678C44.7366 48.7989 45 48.163 45 47.5V42.5H55V47.5C55 50.8152 53.683 53.9946 51.3388 56.3388C48.9946 58.683 45.8152 60 42.5 60C39.1848 60 36.0054 58.683 33.6612 56.3388C31.317 53.9946 30 50.8152 30 47.5V42.5H40ZM75 42.5V47.5C75 48.163 75.2634 48.7989 75.7322 49.2678C76.2011 49.7366 76.837 50 77.5 50C78.163 50 78.7989 49.7366 79.2678 49.2678C79.7366 48.7989 80 48.163 80 47.5V42.5H90V47.5C90 50.8152 88.683 53.9946 86.3388 56.3388C83.9946 58.683 80.8152 60 77.5 60C74.1848 60 71.0054 58.683 68.6612 56.3388C66.317 53.9946 65 50.8152 65 47.5V42.5H75ZM55 70H65.02V80.02H55V70Z" fill="#364b63"/>
</svg>
